<svg width="37" height="37" viewBox="0 0 37 37" fill="none" xmlns="http://www.w3.org/2000/svg">
<path d="M18.0187 36.0374C21.5824 36.0374 25.0662 34.9806 28.0293 33.0007C30.9925 31.0208 33.302 28.2066 34.6658 24.9142C36.0296 21.6217 36.3864 17.9987 35.6912 14.5034C34.9959 11.0081 33.2798 7.79752 30.7598 5.27756C28.2399 2.7576 25.0292 1.04149 21.534 0.346232C18.0387 -0.349023 14.4157 0.00780725 11.1232 1.3716C7.83075 2.73539 5.01662 5.04489 3.0367 8.00805C1.05678 10.9712 0 14.4549 0 18.0187C0 22.7976 1.89839 27.3807 5.27755 30.7598C8.65671 34.139 13.2398 36.0374 18.0187 36.0374Z" fill="#00D395"/>
<path d="M12.7654 24.0506H15.4974V12H13.3353C13.0504 13.6425 11.7431 14.38 10 14.4302V16.2571H12.7654V24.0506Z" fill="#070A0E"/>
<path d="M18.875 24.0506H21.7577C21.8918 19.8606 23.8528 16.3409 26.0149 14.2124V12.1173H17.2492V14.4302H20.4672C21.8248 14.4302 23.35 14.3297 23.35 14.3297V14.3632C21.3555 16.1398 19.0761 19.7265 18.875 24.0506Z" fill="#070A0E"/>
</svg>