<svg width="96" height="97" viewBox="0 0 96 97" fill="none" xmlns="http://www.w3.org/2000/svg">
<g clip-path="url(#clip0_1851_19)">
<path d="M48 96.5C74.5097 96.5 96 75.0097 96 48.5C96 21.9903 74.5097 0.5 48 0.5C21.4903 0.5 0 21.9903 0 48.5C0 75.0097 21.4903 96.5 48 96.5Z" fill="#00DCFA"/>
<path d="M58.134 15.5C46.524 15.5 36.663 24.428 35.424 35.921C23.925 37.163 15 47.024 15 58.631C15.0032 64.6947 17.4132 70.5093 21.7006 74.7973C25.9881 79.0852 31.8023 81.496 37.866 81.5C49.476 81.5 59.376 72.572 60.576 61.079C72.072 59.837 81 49.976 81 38.369C80.9968 32.3053 78.5868 26.4907 74.2994 22.2027C70.0119 17.9148 64.1977 15.504 58.134 15.5V15.5ZM75.642 40.928C75.0711 44.6782 73.3164 48.1477 70.6341 50.8301C67.9517 53.5124 64.4822 55.2671 60.732 55.838V40.928H75.642V40.928ZM20.358 56.072C20.9213 52.3147 22.6726 48.8365 25.3556 46.1465C28.0385 43.4565 31.5122 41.6961 35.268 41.123V56.033H20.358V56.072V56.072ZM55.377 61.232C54.7576 65.4325 52.6476 69.27 49.4325 72.0433C46.2175 74.8166 42.1119 76.3406 37.866 76.337C33.6209 76.3407 29.5161 74.8169 26.3016 72.0442C23.0871 69.2714 20.9774 65.4347 20.358 61.235H55.377V61.232ZM55.572 40.928V56.033H40.428V40.928H55.572ZM75.642 35.768H40.623C41.2424 31.5675 43.3524 27.73 46.5675 24.9567C49.7825 22.1834 53.8881 20.6594 58.134 20.663C62.3791 20.6593 66.4839 22.1831 69.6984 24.9558C72.9129 27.7286 75.0226 31.5653 75.642 35.765V35.768Z" fill="white"/>
</g>
<defs>
<clipPath id="clip0_1851_19">
<rect width="96" height="96" fill="white" transform="translate(0 0.5)"/>
</clipPath>
</defs>
</svg>
