<svg width="86" height="86" viewBox="0 0 86 86" fill="none" xmlns="http://www.w3.org/2000/svg">
<path
    d="M84.9529 9.75981L84.8596 8.77824C84.5016 4.58627 80.5621 1.34939 75.4942 1.09811L74.1679 1.03149V1.0306C53.7263 -0.0167106 33.2443 -0.0167106 12.8029 1.0306L11.4767 1.09722C6.40895 1.34951 2.46939 4.5856 2.11123 8.77735L2.01796 9.75892L2.01885 9.75981C0.651759 25.4978 0.651759 41.3235 2.01885 57.0645L2.11212 58.0327C2.4701 62.2379 6.42302 65.4616 11.4907 65.7128L14.0108 65.8452C23.854 66.3231 33.7764 66.5745 43.6985 66.5745C54.311 66.5745 64.9226 66.2955 75.4418 65.7386C80.4829 65.473 84.4225 62.237 84.7272 58.0585L84.8205 57.0636L84.8196 57.0645C86.2302 41.3301 86.2746 25.503 84.9528 9.75979L84.9529 9.75981ZM79.6471 56.6006L79.5671 57.5955C79.4348 59.0416 77.4841 60.3145 75.2296 60.4344V60.4335C54.9488 61.503 34.6266 61.5385 14.3421 60.5392L11.8354 60.4202C9.5534 60.3011 7.60364 59.0939 7.47129 57.5812L7.39134 56.5997C6.04824 41.153 6.04824 25.6181 7.39134 10.1705L7.47129 9.17563C7.60364 7.72947 9.55436 6.45655 11.8222 6.33671L13.1484 6.27009C23.2031 5.80639 33.3642 5.55501 43.5251 5.55501C53.686 5.55501 63.8476 5.8073 73.9427 6.32428L75.2689 6.3909C77.5377 6.50993 79.4875 7.78375 79.6199 9.22982L79.6998 10.2247V10.2238C81.0269 25.6543 81.0136 41.1713 79.6598 56.5984L79.6471 56.6006Z"
    fill="#00D395"
  />
<path
    d="M63.9793 70.0104C63.481 69.5085 62.8032 69.2269 62.0961 69.2278H24.9519C24.2448 69.2269 23.5671 69.5085 23.0687 70.0104L12.4562 80.6229V80.622C11.7003 81.3824 11.4764 82.523 11.8886 83.5125C12.3008 84.5021 13.2681 85.147 14.3402 85.1461H72.7058C73.778 85.147 74.7454 84.5021 75.1575 83.5125C75.5696 82.523 75.3458 81.3824 74.5899 80.622L63.9793 70.0104ZM20.7475 79.8395L26.0533 74.5337H60.9939L66.2997 79.8395H20.7475Z"
    fill="#00D395"
  />
</svg>
